<?xml version="1.0" encoding="UTF-8" standalone="no"?>
<svg
   xmlns:dc="http://purl.org/dc/elements/1.1/"
   xmlns:cc="http://creativecommons.org/ns#"
   xmlns:rdf="http://www.w3.org/1999/02/22-rdf-syntax-ns#"
   xmlns:svg="http://www.w3.org/2000/svg"
   xmlns="http://www.w3.org/2000/svg"
   xmlns:sodipodi="http://sodipodi.sourceforge.net/DTD/sodipodi-0.dtd"
   xmlns:inkscape="http://www.inkscape.org/namespaces/inkscape"
   width="36.232094mm"
   height="7.9375mm"
   viewBox="0 0 36.232094 7.9375"
   version="1.1"
   id="svg8"
   inkscape:version="1.0.2 (e86c8708, 2021-01-15)"
   sodipodi:docname="logo.svg">
  <defs
     id="defs2" />
  <sodipodi:namedview
     id="base"
     pagecolor="#ffffff"
     bordercolor="#666666"
     borderopacity="1.0"
     inkscape:pageopacity="0.0"
     inkscape:pageshadow="2"
     inkscape:zoom="7.441367"
     inkscape:cx="70.753126"
     inkscape:cy="52.627509"
     inkscape:document-units="mm"
     inkscape:current-layer="layer1"
     inkscape:document-rotation="0"
     showgrid="false"
     fit-margin-top="0"
     fit-margin-left="0"
     fit-margin-right="0"
     fit-margin-bottom="0"
     inkscape:window-width="1252"
     inkscape:window-height="762"
     inkscape:window-x="0"
     inkscape:window-y="25"
     inkscape:window-maximized="0" />
  <metadata
     id="metadata5">
    <rdf:RDF>
      <cc:Work
         rdf:about="">
        <dc:format>image/svg+xml</dc:format>
        <dc:type
           rdf:resource="http://purl.org/dc/dcmitype/StillImage" />
        <dc:title></dc:title>
      </cc:Work>
    </rdf:RDF>
  </metadata>
  <g
     inkscape:label="Layer 1"
     inkscape:groupmode="layer"
     id="layer1"
     transform="translate(-67.458474,-144.95386)">
    <g
       id="g117">
      <path
         fill="#6366f1"
         d="m 68.518464,147.85608 c -0.209815,0 -0.414602,0.0624 -0.588963,0.17939 a 1.0638896,1.0638896 0 0 0 -0.390525,0.4781 1.0694458,1.0694458 0 0 0 0.229923,1.16046 1.0585979,1.0585979 0 0 0 1.155171,0.23098 1.0612437,1.0612437 0 0 0 0.475721,-0.39238 1.0683875,1.0683875 0 0 0 -0.132292,-1.34408 1.0593917,1.0593917 0 0 0 -0.749035,-0.31247 z"
         id="path80"
         style="stroke-width:0.264583" />
      <g
         id="g110">
        <path
           fill="#6366f1"
           d="m 71.230707,151.79731 a 1.0697104,1.0697104 0 0 1 -0.299772,0.77179 1.0599208,1.0599208 0 0 1 -0.759884,0.32226 1.0562167,1.0562167 0 0 1 -0.759883,-0.32226 1.0657417,1.0657417 0 0 1 -0.299773,-0.77179 c 0.0024,-0.18468 0.05292,-0.36565 0.147373,-0.52414 0.09419,-0.15875 0.228335,-0.28945 0.388937,-0.37915 -0.0063,0.0288 0.02381,-0.0146 0,0 l 0.492125,-0.43709 a 2.2476354,2.2476354 0 0 0 0.6096,-1.53273 c 0,-0.77417 -0.452702,-1.56131 -1.103312,-1.973 0.02487,0.0146 -0.0095,-0.0249 0,0 a 1.0456333,1.0456333 0 0 1 -0.388673,-0.37915 1.0517187,1.0517187 0 0 1 -0.147373,-0.52387 1.0694458,1.0694458 0 0 1 0.299773,-0.77205 1.0599208,1.0599208 0 0 1 0.759619,-0.32227 1.0556875,1.0556875 0 0 1 0.759883,0.32227 1.0649479,1.0649479 0 0 1 0.299773,0.77179 2.2545146,2.2545146 0 0 0 0.620977,1.54305 l 0.216165,0.21166 c 0.08625,0.0754 0.176741,0.14579 0.270933,0.21114 0.164306,0.0873 0.302154,0.21855 0.397933,0.37862 a 1.0324042,1.0324042 0 0 1 -0.397933,1.43986 c 0.0087,-0.0177 -0.01667,0.01 0,0 a 2.3727833,2.3727833 0 0 0 -0.8001,0.84217 2.3854833,2.3854833 0 0 0 -0.306388,1.12289 z m 1.186128,-5.75257 c 0,0.21061 0.06218,0.41672 0.178858,0.59187 a 1.0609792,1.0609792 0 0 0 0.475721,0.39212 1.0556875,1.0556875 0 0 0 1.15517,-0.23099 1.0694458,1.0694458 0 0 0 0.229923,-1.16046 1.063625,1.063625 0 0 0 -0.390525,-0.47784 1.0567458,1.0567458 0 0 0 -1.338262,0.13256 1.0683875,1.0683875 0 0 0 -0.310885,0.75274 z m 1.060185,4.68762 c -0.20955,0 -0.414602,0.0624 -0.588963,0.17939 a 1.0638896,1.0638896 0 0 0 -0.390525,0.47784 1.0694458,1.0694458 0 0 0 0.229923,1.16073 1.0556875,1.0556875 0 0 0 1.155171,0.23098 1.0609792,1.0609792 0 0 0 0.475986,-0.39265 1.0686521,1.0686521 0 0 0 -0.132292,-1.34461 1.0583333,1.0583333 0 0 0 -0.7493,-0.31221 z m 2.712508,-1.81133 c 0,-0.21061 -0.06218,-0.41646 -0.178594,-0.59161 a 1.0609792,1.0609792 0 0 0 -0.47572,-0.39238 1.0556875,1.0556875 0 0 0 -1.155436,0.23098 1.0694458,1.0694458 0 0 0 -0.229923,1.16073 1.063625,1.063625 0 0 0 0.390525,0.47784 1.0564812,1.0564812 0 0 0 0.588963,0.17938 1.0591271,1.0591271 0 0 0 0.7493,-0.3122 1.0689167,1.0689167 0 0 0 0.310885,-0.75301 z"
           id="path78"
           style="stroke-width:0.264583" />
        <text
           xml:space="preserve"
           style="font-style:normal;font-weight:normal;font-size:5.64444px;line-height:1.25;font-family:sans-serif;fill:#000000;fill-opacity:1;stroke:none;stroke-width:0.264582"
           x="76.551506"
           y="151.18294"
           id="text102"><tspan
             sodipodi:role="line"
             id="tspan100"
             x="76.551506"
             y="151.18294"
             style="font-size:5.64444px;fill:#ffffff;stroke-width:0.264582">SendMoni</tspan></text>
      </g>
    </g>
  </g>
</svg>
