<?xml version="1.0" encoding="UTF-8" standalone="no"?>
<svg
   xmlns:dc="http://purl.org/dc/elements/1.1/"
   xmlns:cc="http://creativecommons.org/ns#"
   xmlns:rdf="http://www.w3.org/1999/02/22-rdf-syntax-ns#"
   xmlns:svg="http://www.w3.org/2000/svg"
   xmlns="http://www.w3.org/2000/svg"
   xmlns:sodipodi="http://sodipodi.sourceforge.net/DTD/sodipodi-0.dtd"
   xmlns:inkscape="http://www.inkscape.org/namespaces/inkscape"
   width="36.232094mm"
   height="7.9375mm"
   viewBox="0 0 36.232094 7.9375"
   version="1.1"
   id="svg8"
   inkscape:version="1.0.2 (e86c8708, 2021-01-15)"
   sodipodi:docname="logo.svg">
  <defs
     id="defs2" />
  <sodipodi:namedview
     id="base"
     pagecolor="#ffffff"
     bordercolor="#666666"
     borderopacity="1.0"
     inkscape:pageopacity="0.0"
     inkscape:pageshadow="2"
     inkscape:zoom="7.441367"
     inkscape:cx="70.753126"
     inkscape:cy="-1.126056"
     inkscape:document-units="mm"
     inkscape:current-layer="layer1"
     inkscape:document-rotation="0"
     showgrid="false"
     fit-margin-top="0"
     fit-margin-left="0"
     fit-margin-right="0"
     fit-margin-bottom="0"
     inkscape:window-width="1252"
     inkscape:window-height="762"
     inkscape:window-x="0"
     inkscape:window-y="25"
     inkscape:window-maximized="0" />
  <metadata
     id="metadata5">
    <rdf:RDF>
      <cc:Work
         rdf:about="">
        <dc:format>image/svg+xml</dc:format>
        <dc:type
           rdf:resource="http://purl.org/dc/dcmitype/StillImage" />
        <dc:title />
      </cc:Work>
    </rdf:RDF>
  </metadata>
  <g
     inkscape:label="Layer 1"
     inkscape:groupmode="layer"
     id="layer1"
     transform="translate(-67.458474,-144.95386)">
    <path
       fill="#6366f1"
       d="m 68.518464,147.85608 c -0.209815,0 -0.414602,0.0624 -0.588963,0.17939 a 1.0638896,1.0638896 0 0 0 -0.390525,0.4781 1.0694458,1.0694458 0 0 0 0.229923,1.16046 1.0585979,1.0585979 0 0 0 1.155171,0.23098 1.0612437,1.0612437 0 0 0 0.475721,-0.39238 1.0683875,1.0683875 0 0 0 -0.132292,-1.34408 1.0593917,1.0593917 0 0 0 -0.749035,-0.31247 z"
       id="path80"
       style="stroke-width:0.264583;fill:#0000ff" />
    <path
       fill="#6366f1"
       d="m 70.477424,150.92782 a 0.88705578,0.77262322 0 0 1 -0.248586,0.55744 0.87893777,0.76555245 0 0 1 -0.630132,0.23276 0.87586615,0.76287708 0 0 1 -0.630132,-0.23276 0.88376474,0.76975673 0 0 1 -0.248587,-0.55744 c 0.002,-0.13339 0.04388,-0.2641 0.122209,-0.37858 0.07811,-0.11466 0.189347,-0.20906 0.322526,-0.27385 -0.0052,0.0208 0.01974,-0.0105 0,0 l 0.408094,-0.31569 a 1.8638484,1.6234069 0 0 0 0.505509,-1.10705 c 0,-0.55917 -0.375402,-1.1277 -0.914919,-1.42505 0.02062,0.0105 -0.0079,-0.018 0,0 a 0.86708988,0.75523297 0 0 1 -0.322307,-0.27385 0.87213619,0.75962829 0 0 1 -0.122209,-0.37838 0.88683636,0.7724321 0 0 1 0.248587,-0.55763 0.87893777,0.76555245 0 0 1 0.629913,-0.23276 0.87542731,0.76249485 0 0 1 0.630131,0.23276 0.88310648,0.76918339 0 0 1 0.248587,0.55745 1.8695529,1.6283756 0 0 0 0.514944,1.1145 l 0.179254,0.15288 c 0.07152,0.0545 0.146563,0.1053 0.224671,0.1525 0.136251,0.063 0.250561,0.15785 0.329986,0.27346 a 0.85611967,0.74567794 0 0 1 -0.329986,1.03998 c 0.0072,-0.0128 -0.01382,0.007 0,0 a 1.9676271,1.7137979 0 0 0 -0.663481,0.60827 1.9781585,1.7229708 0 0 0 -0.254072,0.81104 z m 0.983595,-4.15493 c 0,0.15212 0.05156,0.30099 0.148317,0.42749 a 0.87981544,0.7663169 0 0 0 0.394491,0.28322 0.87542731,0.76249485 0 0 0 0.957923,-0.16684 0.88683636,0.7724321 0 0 0 0.190664,-0.83817 0.88200947,0.76822789 0 0 0 -0.323843,-0.34513 0.8763049,0.76325923 0 0 0 -1.109751,0.0957 0.88595877,0.77166772 0 0 0 -0.257801,0.54368 z m 0.879156,3.38574 c -0.173769,0 -0.343808,0.0451 -0.488396,0.12957 a 0.88222889,0.76841901 0 0 0 -0.323843,0.34513 0.88683636,0.7724321 0 0 0 0.190664,0.83837 0.87542731,0.76249485 0 0 0 0.957924,0.16683 0.87981544,0.7663169 0 0 0 0.39471,-0.2836 0.88617818,0.77185883 0 0 0 -0.109703,-0.97118 0.87762134,0.76440584 0 0 0 -0.621356,-0.2255 z m 2.249344,-1.30827 c 0,-0.15212 -0.05156,-0.3008 -0.148099,-0.42731 a 0.87981544,0.7663169 0 0 0 -0.39449,-0.2834 0.87542731,0.76249485 0 0 0 -0.958144,0.16683 0.88683636,0.7724321 0 0 0 -0.190663,0.83836 0.88200947,0.76822789 0 0 0 0.323842,0.34513 0.87608548,0.76306812 0 0 0 0.488397,0.12956 0.87827959,0.76497918 0 0 0 0.621356,-0.22549 0.8863976,0.77204995 0 0 0 0.257801,-0.54388 z"
       id="path78"
       style="fill:#0000ff;stroke-width:0.204765" />
    <text
       xml:space="preserve"
       style="font-style:normal;font-weight:normal;font-size:5.64444px;line-height:1.25;font-family:sans-serif;fill:#000000;fill-opacity:1;stroke:none;stroke-width:0.264582"
       x="76.551506"
       y="151.18294"
       id="text102"><tspan
         sodipodi:role="line"
         id="tspan100"
         x="76.551506"
         y="151.18294"
         style="font-size:5.64444px;fill:#ffffff;stroke-width:0.264582">SendMoni</tspan></text>
  </g>
</svg>
